<?xml version="1.0" standalone="no"?>
<!DOCTYPE svg PUBLIC "-//W3C//DTD SVG 20010904//EN"
 "http://www.w3.org/TR/2001/REC-SVG-20010904/DTD/svg10.dtd">
<svg version="1.0" xmlns="http://www.w3.org/2000/svg"
 width="512.000000pt" height="512.000000pt" viewBox="0 0 512.000000 512.000000"
 preserveAspectRatio="xMidYMid meet">
<metadata>
Created by potrace 1.14, written by Peter Selinger 2001-2017
</metadata>
<g transform="translate(0.000000,512.000000) scale(0.100000,-0.100000)"
fill="#000000" stroke="none">
<path d="M2136 5104 c-171 -41 -317 -178 -376 -354 -21 -62 -22 -83 -24 -410
l-2 -345 -270 0 c-325 -1 -325 -1 -327 -93 -1 -17 -5 -21 -16 -16 -61 26 -93
32 -151 29 -82 -4 -129 -24 -190 -81 -154 -144 -113 -392 80 -486 59 -28 188
-31 238 -5 17 10 33 14 33 10 1 -5 2 -186 3 -403 3 -415 5 -456 38 -585 23
-92 22 -90 81 -215 141 -296 419 -518 755 -601 42 -10 43 -11 36 -42 -24 -106
14 -201 100 -252 l40 -24 1 -162 c0 -103 -3 -163 -10 -165 -5 -2 -75 -5 -155
-7 -171 -4 -225 -20 -306 -91 -46 -41 -100 -127 -118 -188 -5 -16 -21 -18
-138 -19 -73 0 -149 -2 -170 -5 -109 -13 -231 -77 -311 -164 -52 -56 -112
-160 -123 -213 -29 -140 -21 -198 30 -211 12 -3 770 -6 1686 -6 1293 1 1669 3
1681 13 21 16 36 47 34 72 -15 171 -63 275 -172 375 -79 72 -177 118 -298 139
-3 1 -68 1 -145 1 -125 0 -141 2 -146 17 -3 10 -19 46 -35 80 -36 73 -101 136
-179 171 -49 23 -72 26 -215 31 l-160 6 0 158 c0 87 2 162 5 166 3 5 19 15 36
24 40 20 83 78 99 131 12 41 12 66 1 122 -6 31 -4 32 42 44 209 53 384 151
533 300 139 139 224 279 285 470 43 135 49 217 49 658 0 210 0 382 1 382 0 0
16 -8 35 -17 52 -26 180 -24 239 5 53 26 114 82 137 126 23 45 42 123 37 154
-2 15 -7 43 -10 62 -3 19 -17 55 -31 79 -80 138 -237 184 -394 117 -13 -6 -16
-2 -12 16 5 32 -31 88 -59 89 -13 1 -140 2 -283 3 l-260 1 -1 335 c-1 219 -5
352 -13 385 -45 188 -204 345 -392 389 -90 21 -755 21 -843 0z m-411 -1863 c6
-1 10 -112 10 -313 -1 -210 3 -336 12 -381 37 -203 192 -364 395 -412 92 -21
758 -21 840 0 204 54 358 216 391 413 8 43 12 187 12 381 0 200 3 312 10 314
5 2 39 3 75 2 l65 0 -1 -325 c-1 -389 -4 -420 -54 -540 -84 -199 -268 -349
-488 -396 -95 -20 -781 -19 -868 1 -264 61 -449 241 -521 504 -22 78 -26 738
-5 750 11 6 80 7 127 2z"/>
</g>
</svg>
